<svg xmlns="http://www.w3.org/2000/svg" viewBox="0 0 64 64"><path d="M32 15c-2.757 0-5 2.243-5 5s2.243 5 5 5 5-2.243 5-5-2.243-5-5-5zm0 8c-1.654 0-3-1.346-3-3s1.346-3 3-3 3 1.346 3 3-1.346 3-3 3z"/><path d="m42 17-1.537-.041a8.934 8.934 0 0 0-.348-.832l1.077-1.077a.999.999 0 0 0 0-1.414l-2.828-2.829a.997.997 0 0 0-1.414 0l-1.119 1.056a8.931 8.931 0 0 0-.831-.339V10a1 1 0 0 0-1-1h-4a1 1 0 0 0-1 1l-.043 1.538c-.27.096-.531.205-.83.347l-1.077-1.077a1.03 1.03 0 0 0-1.414 0l-2.828 2.829a.999.999 0 0 0 0 1.414l1.057 1.118a8.79 8.79 0 0 0-.34.832H22a1 1 0 0 0-1 1v4a1 1 0 0 0 1 1l1.537.041c.097.27.206.533.348.832l-1.077 1.077a.999.999 0 0 0 0 1.414l2.828 2.829a.997.997 0 0 0 1.414 0l1.119-1.056c.257.12.519.229.831.339V30a1 1 0 0 0 1 1h4a1 1 0 0 0 1-1l.043-1.538c.27-.096.531-.205.83-.347l1.077 1.077a1.03 1.03 0 0 0 1.414 0l2.828-2.829a.999.999 0 0 0 0-1.414l-1.057-1.118a8.79 8.79 0 0 0 .34-.832H42a1 1 0 0 0 1-1v-4A1 1 0 0 0 42 17zm-1 4h-.524c-.854 0-1.598.537-1.897 1.37-.073.208-.157.41-.252.61-.375.799-.228 1.705.375 2.307l.37.37-1.414 1.415-.37-.37c-.595-.595-1.521-.746-2.308-.375a6.448 6.448 0 0 1-.612.253C33.55 26.874 33 27.635 33 28.476V29h-2v-.524c0-.841-.55-1.603-1.367-1.896a6.873 6.873 0 0 1-.611-.253c-.785-.369-1.713-.222-2.309.374l-.37.37-1.414-1.415.37-.37c.603-.602.75-1.508.374-2.309a6.215 6.215 0 0 1-.252-.611C25.122 21.537 24.378 21 23.524 21H23v-2h.524c.854 0 1.598-.537 1.897-1.37.073-.208.157-.41.252-.61.375-.799.228-1.705-.375-2.307l-.37-.37 1.414-1.415.37.37c.593.594 1.521.745 2.308.375.198-.094.403-.179.612-.253.818-.294 1.368-1.055 1.368-1.896V11h2v.524c0 .841.55 1.603 1.367 1.896.209.075.414.16.611.253.786.371 1.714.222 2.309-.374l.37-.37 1.414 1.415-.37.37c-.603.602-.75 1.508-.374 2.309.094.198.178.4.252.611.299.829 1.043 1.366 1.897 1.366H41v2z"/><path d="m61.548 21.164-29-19a1 1 0 0 0-1.096 0l-29 19A.999.999 0 0 0 2 22v39a1 1 0 0 0 1 1h8a1 1 0 0 0 1-1V35h40v26a1 1 0 0 0 1 1h8a1 1 0 0 0 1-1V22a.999.999 0 0 0-.452-.836zM54 60V34a1 1 0 0 0-1-1H11a1 1 0 0 0-1 1v26H4V28h12v-2H4v-3.459L32 4.195 60 22.54V26H48v2h12v32h-6z"/><path d="M47 40H27a1 1 0 0 0-1 1v9h-9a1 1 0 0 0-1 1v10a1 1 0 0 0 1 1h30a1 1 0 0 0 1-1V41a1 1 0 0 0-1-1zM26 60h-8v-8h3v3h2v-3h3v8zm10 0h-8v-8h3v3h2v-3h3v8zm0-10h-8v-8h3v3h2v-3h3v8zm10 10h-8v-8h3v3h2v-3h3v8zm0-10h-8v-8h3v3h2v-3h3v8zM44 26h2v2h-2zM18 26h2v2h-2z"/></svg>